<?xml version="1.0" encoding="utf-8"?>
<svg viewBox="29.693 89.488 449.343 392.61" width="449.343" height="392.61" xmlns="http://www.w3.org/2000/svg">
  <g id="Page-1" stroke="none" stroke-width="1" fill="none" fill-rule="evenodd" transform="matrix(1.543893, -0.039086, 0.016834, 1.508415, 28.98125, -0.67348)" style="">
    <g id="03" transform="matrix(1.000098, 0.014376, -0.019054, 1.020401, -60.350899, -110.019127)" style="">
      <g id="Group-109" transform="translate(66.000000, 98.000000)">
        <path d="M 111.631 139.66 C 108.297 142.815 107.03 147.726 110.208 151.514 C 113.201 155.083 118.994 155.84 122.732 152.995 C 131.756 146.131 122.35 133.463 112.611 136.084 C 110.806 136.569 111.258 139.103 113.038 139.204 C 115.887 139.363 118.933 139.471 121.209 141.437 C 123.653 143.551 123.706 147.124 121.701 149.553 C 116.394 155.987 107.172 146.513 112.747 140.761 C 113.451 140.036 112.367 138.963 111.631 139.66" id="Fill-1" fill="#7CABFF" transform="matrix(0.999797, 0.020136, -0.020136, 0.999797, 2.948234, -2.334059)"/>
        <path d="M 205.143 152.987 C 206.334 157.546 207.644 162.056 209.004 166.564 C 209.332 167.649 210.328 167.988 211.23 167.355 C 214.779 164.866 218.333 162.419 221.694 159.663 C 222.34 159.132 222.2 158.064 221.56 157.61 C 217.622 154.82 212.304 150.702 207.307 150.673 C 206.037 150.666 205.147 152.512 206.436 153.279 C 208.455 154.479 210.869 154.908 213.022 155.833 C 215.51 156.898 217.971 158.15 220.164 159.769 C 220.216 159.021 220.263 158.271 220.313 157.523 C 216.553 159.914 213.016 162.591 209.44 165.26 C 210.144 165.405 210.848 165.552 211.552 165.697 C 210.026 161.244 208.461 156.822 206.77 152.433 C 206.413 151.508 204.889 152.015 205.143 152.987" id="Fill-3" fill="#FF7081" transform="matrix(0.999797, 0.020136, -0.020136, 0.999797, 3.248452, -4.269124)"/>
        <path d="M 230.31 176.055 C 235.728 173.508 241.272 170.58 246.153 167.142 C 247.944 165.878 246.179 163.414 244.29 164.386 C 239.072 167.069 233.985 170.536 229.331 174.072 C 228.398 174.781 229.085 176.631 230.31 176.055" id="Fill-5" fill="#FBC580" transform="matrix(0.999797, 0.020136, -0.020136, 0.999797, 3.474707, -4.755863)"/>
        <path d="M 29.606 189.802 C 28.477 184.167 27.006 178.316 24.864 172.954 C 24.077 170.983 21.204 172.006 21.682 173.993 C 22.996 179.481 25.113 185.04 27.408 190.218 C 27.869 191.257 29.862 191.079 29.606 189.802" id="Fill-7" fill="#FF957E" transform="matrix(0.999797, 0.020136, -0.020136, 0.999797, 3.657764, -0.479287)"/>
        <path d="M 48.363 136.685 L 48.02 136.384 C 46.512 135.05 44.039 134.789 42.572 136.384 C 41.09 137.995 41.145 140.207 42.572 141.818 C 42.674 141.933 42.774 142.044 42.874 142.161 C 44.225 143.679 47.005 143.636 48.363 142.161 C 49.713 140.692 49.987 138.118 48.363 136.685" id="Fill-9" fill="#241352" transform="matrix(0.999797, 0.020136, -0.020136, 0.999797, 2.813867, -0.887572)"/>
        <path d="M 189.687 292.831 C 189.687 292.831 132.61 306.062 109.685 283.214 L 117.888 228.643 C 120.38 212.956 118.895 182.775 130.948 172.068 C 133.281 169.995 135.527 168.964 135.527 168.964 C 143.983 164.895 159.026 162.697 173.471 162.642 C 191.019 162.574 209.078 175.797 213.685 192.67 L 194.692 236.94 L 189.687 292.831 Z" id="Fill-11" fill="#FF7081" transform="matrix(0.999797, 0.020136, -0.020136, 0.999797, 4.656901, -3.209168)"/>
        <path d="M 184.845 199.816 C 184.845 199.816 210.445 248.782 197.736 251.388 C 155.914 259.967 131.641 267.001 131.641 267.001 L 129.51 283.126 C 130.133 285.563 214.117 283.457 224.065 272.253 C 231.088 264.342 240.425 246.061 220.561 206.493 L 214.525 193.033 L 184.845 199.816 Z" id="Fill-13" fill="#FFAFA7" transform="matrix(0.999797, 0.020136, -0.020136, 0.999797, 4.839856, -3.596495)"/>
        <path d="M 138.464 171.197 L 74.63 195.64 L 72.632 162.519 L 58.966 157.291 C 58.966 157.291 39.149 210.454 63.932 220.352 C 88.716 230.252 116.641 211.96 116.641 211.96 L 138.464 171.197 Z" id="Fill-15" fill="#FFAFA7" transform="matrix(0.999797, 0.020136, -0.020136, 0.999797, 3.850992, -1.873637)"/>
        <path d="M 145.34 164.642 C 123.37 171.694 110.268 179.959 79.34 192.957 L 95.222 228.642 L 122.595 219.786 L 145.34 164.642 Z" id="Fill-17" fill="#FF7081" transform="matrix(0.999797, 0.020136, -0.020136, 0.999797, 3.982409, -2.222236)"/>
        <polyline id="Fill-19" fill="#FF7081" points="182.175 192.969 198.146 230.563 234.169 223.899 209.901 181.563 181.169 192.969" transform="matrix(0.999797, 0.020136, -0.020136, 0.999797, 4.191441, -4.139894)"/>
        <path d="M 162.378 217.619 C 170.104 217.213 177.734 217.529 185.453 217.625 C 186.127 217.635 186.087 216.733 185.453 216.661 C 177.846 215.801 169.992 216.145 162.378 216.763 C 161.805 216.811 161.793 217.651 162.378 217.619" id="Fill-21" fill="#002C68" transform="matrix(0.999797, 0.020136, -0.020136, 0.999797, 4.402523, -3.458598)"/>
        <path d="M 196.957 174.213 C 170.986 176.58 188.75 215.227 195.406 226.927 C 195.774 227.579 196.77 226.995 196.404 226.338 C 189.788 214.517 172.085 178.551 197.041 174.852 C 197.399 174.799 197.319 174.179 196.957 174.213" id="Fill-23" fill="#002C68" transform="matrix(0.999797, 0.020136, -0.020136, 0.999797, 4.080158, -3.79068)"/>
        <path d="M 124.301 195.072 C 121.005 207.866 118.792 221.172 117.976 234.346 C 117.941 234.891 118.887 235.028 118.967 234.477 C 120.883 221.379 122.81 208.316 124.969 195.249 C 125.039 194.833 124.412 194.641 124.301 195.072" id="Fill-25" fill="#002C68" transform="matrix(0.999797, 0.020136, -0.020136, 0.999797, 4.350467, -2.402488)"/>
        <path d="M 188.579 124.668 C 188.981 119.117 189.387 113.567 189.789 108.017 C 194.164 106.788 196.44 101.207 194.692 97.023 C 192.946 92.838 187.99 90.488 183.488 91.13 C 186.327 89.201 186.112 84.597 183.781 82.081 C 181.45 79.565 177.799 78.749 174.365 78.617 C 170.932 78.484 167.458 78.9 164.08 78.276 C 161.089 77.72 158.158 76.354 155.139 76.733 C 152.12 77.115 149.233 80.502 150.861 83.065 C 146.507 82.428 141.796 81.849 137.927 83.943 C 134.058 86.038 132.116 91.997 135.44 94.873 C 133.244 95.99 132.695 99.16 133.93 101.288 C 135.165 103.415 137.694 104.533 140.151 104.71 C 142.61 104.885 145.05 104.265 147.437 103.649" id="Fill-27" fill="#241352" transform="matrix(0.999797, 0.020136, -0.020136, 0.999797, 2.06038, -3.287631)"/>
        <path d="M 187.222 114.011 L 186.358 125.501 C 186.358 125.501 196.042 126.819 193.283 135.729 C 190.521 144.639 183.896 140.741 183.896 140.741 C 183.896 140.741 182.239 163.575 159.048 156.335 C 140.592 150.572 141.719 126.466 144.063 105.915 C 144.972 97.954 152.438 92.479 160.237 94.011 L 174.179 96.751 C 182.239 98.333 187.845 105.754 187.222 114.011" id="Fill-29" fill="#FFAFA7" transform="matrix(0.999797, 0.020136, -0.020136, 0.999797, 2.566321, -3.362983)"/>
        <path d="M 185.134 135.767 L 178.838 168.917 C 177.418 176.384 169.963 181.163 162.477 179.4 C 155.539 177.766 151.097 171.075 152.343 164.141 L 155.76 145.141 L 185.134 135.767 Z" id="Fill-31" fill="#FFAFA7" transform="matrix(0.999797, 0.020136, -0.020136, 0.999797, 3.21102, -3.363667)"/>
        <path d="M 159.758 135.641 C 159.795 135.628 159.864 136.126 159.19 136.472 C 158.491 136.8 157.369 136.085 157.08 134.91 C 156.707 133.78 156.763 132.411 156.823 131.005 C 156.898 129.509 156.975 127.985 157.053 126.384 C 157.445 119.83 157.999 114.534 158.3 114.552 C 158.594 114.573 158.522 119.9 158.134 126.456 C 158.022 128.053 157.918 129.579 157.815 131.073 C 157.696 132.492 157.586 133.73 157.813 134.683 C 157.976 135.645 158.644 136.118 159.078 136.045 C 159.521 135.967 159.683 135.58 159.758 135.641" id="Fill-33" fill="#241352" transform="matrix(0.999797, 0.020136, -0.020136, 0.999797, 2.560235, -3.161702)"/>
        <path d="M 151.18 153.662 C 151.287 153.535 152.422 154.224 154.418 155.002 C 156.396 155.784 159.309 156.583 162.608 156.642 C 165.912 156.704 168.858 156.014 170.873 155.306 C 172.904 154.603 174.069 153.956 174.17 154.086 C 174.253 154.18 173.235 155.048 171.204 155.953 C 169.195 156.858 166.096 157.708 162.584 157.643 C 159.075 157.58 156.021 156.614 154.054 155.636 C 152.069 154.657 151.094 153.752 151.18 153.662" id="Fill-35" fill="#241352" transform="matrix(0.999797, 0.020136, -0.020136, 0.999797, 3.167122, -3.2441)"/>
        <path d="M 156.508 140.414 C 156.642 140.311 157.175 140.767 158.191 141.164 C 159.182 141.568 160.75 141.864 162.301 141.428 C 163.85 140.982 164.929 139.933 165.471 139.095 C 166.032 138.248 166.164 137.604 166.341 137.62 C 166.475 137.618 166.644 138.329 166.201 139.4 C 165.782 140.443 164.598 141.825 162.652 142.39 C 160.696 142.934 158.825 142.421 157.796 141.789 C 156.73 141.149 156.396 140.482 156.508 140.414" id="Fill-37" fill="#241352" transform="matrix(0.999797, 0.020136, -0.020136, 0.999797, 2.854226, -3.223342)"/>
        <path d="M 186.613 136.948 C 186.598 136.782 187.178 136.7 187.822 136.305 C 188.143 136.101 188.421 135.812 188.523 135.406 C 188.626 134.992 188.508 134.608 188.185 134.505 C 187.919 134.402 187.666 134.488 187.607 134.585 L 186.672 134.104 C 187.548 132.303 188.331 131.059 188.561 131.16 C 188.786 131.261 188.39 132.673 187.636 134.528 L 186.704 134.045 C 187.096 133.381 187.955 133.23 188.575 133.482 C 189.031 133.631 189.432 134.085 189.54 134.513 C 189.668 134.95 189.613 135.372 189.483 135.721 C 189.227 136.433 188.622 136.851 188.155 137.005 C 187.181 137.312 186.609 137.072 186.613 136.948" id="Fill-39" fill="#241352" transform="matrix(0.999797, 0.020136, -0.020136, 0.999797, 2.739509, -3.760683)"/>
        <path d="M 169.005 114.503 C 168.907 114.245 169.934 113.639 171.233 114.025 C 172.534 114.403 173.161 115.495 172.963 115.667 C 172.77 115.871 172.018 115.317 170.996 115.033 C 169.984 114.719 169.082 114.787 169.005 114.503" id="Fill-41" fill="#241352" transform="matrix(0.999797, 0.020136, -0.020136, 0.999797, 2.346421, -3.419995)"/>
        <path d="M 148.114 109.571 C 147.985 109.323 149.114 108.571 150.692 108.717 C 152.27 108.851 153.253 109.791 153.085 110.011 C 152.925 110.261 151.898 109.855 150.603 109.755 C 149.309 109.625 148.228 109.845 148.114 109.571" id="Fill-43" fill="#241352" transform="matrix(0.999797, 0.020136, -0.020136, 0.999797, 2.233335, -3.010415)"/>
        <path d="M 186.119 126.096 C 179.636 119.651 177.731 108.914 175.971 99.861 C 169.968 104.319 161.709 105.414 154.787 102.673 C 152.613 105.277 150.061 107.55 147.24 109.395 C 146.437 109.919 145.485 110.43 144.572 110.149 C 143.485 109.814 143 108.542 142.741 107.414 C 141.913 103.803 141.884 99.936 143.118 96.449 C 144.355 92.961 146.943 89.897 150.337 88.559 C 153.961 87.126 158.043 87.749 161.806 88.744 C 167.476 90.243 172.942 92.546 177.998 95.564 C 182.958 98.527 187.725 102.447 189.827 107.904 C 191.932 113.359 191.924 123.958 186.85 126.717" id="Fill-45" fill="#241352" transform="matrix(0.999797, 0.020136, -0.020136, 0.999797, 2.192734, -3.333979)"/>
        <path d="M 170.75 122.804 C 170.462 122.786 170.284 122.099 170.348 121.27 C 170.414 120.442 170.7 119.787 170.986 119.805 C 171.274 119.823 171.454 120.511 171.386 121.339 C 171.322 122.165 171.036 122.822 170.75 122.804" id="Fill-47" fill="#241352" transform="matrix(0.999797, 0.020136, -0.020136, 0.999797, 2.477261, -3.416038)"/>
        <path d="M 151.794 120.422 C 151.506 120.404 151.328 119.717 151.394 118.888 C 151.458 118.06 151.744 117.405 152.03 117.423 C 152.318 117.441 152.498 118.129 152.432 118.957 C 152.366 119.783 152.082 120.44 151.794 120.422" id="Fill-49" fill="#241352" transform="matrix(0.999797, 0.020136, -0.020136, 0.999797, 2.425454, -3.034844)"/>
        <path d="M 58.376 158.276 C 58.376 158.276 61.202 140.812 64.58 141 C 67.959 141.188 74.711 141 74.711 141 C 74.711 141 75.276 124.388 77.153 127.03 C 79.028 129.673 79.619 152.023 72.382 162.746 L 58.376 158.276 Z" id="Fill-51" fill="#FFAFA7" transform="matrix(0.999797, 0.020136, -0.020136, 0.999797, 2.928497, -1.347484)"/>
        <path d="M 130.778 265.737 C 130.778 265.737 101.206 270.999 101.786 274.902 C 102.363 278.802 104.44 282.737 104.44 282.737 L 130.778 282.106 L 130.778 265.737 Z" id="Fill-53" fill="#FFAFA7" transform="matrix(0.999797, 0.020136, -0.020136, 0.999797, 5.545679, -2.285795)"/>
        <polygon id="Fill-55" fill="#6F35A5" points="164.237 282.858 164.007 278.682 101.627 274.885 80.705 219.167 12.237 222.913 35.596 283.167" transform="matrix(0.999797, 0.020136, -0.020136, 0.999797, 5.075451, -1.725837)"/>
        <path d="M 50.291 248.777 C 50.444 251.533 52.802 253.646 55.561 253.495 C 58.318 253.342 60.431 250.985 60.276 248.227 C 60.125 245.47 57.768 243.358 55.011 243.51 C 52.251 243.663 50.141 246.02 50.291 248.777" id="Fill-57" fill="#FFFFFF" transform="matrix(0.999797, 0.020136, -0.020136, 0.999797, 5.015115, -1.062822)"/>
        <path d="M 48.295 248.887 C 48.508 252.748 51.81 255.705 55.669 255.492 C 59.529 255.28 62.484 251.978 62.273 248.118 C 62.062 244.257 58.76 241.3 54.899 241.513 C 51.038 241.725 48.081 245.027 48.295 248.887" id="Fill-59" fill="#FFFFFF" transform="matrix(0.999797, 0.020136, -0.020136, 0.999797, 5.015116, -1.062824)"/>
        <g id="Group-63" transform="matrix(0.999797, 0.020136, -0.020136, 0.999797, 2.722427, 277.419006)">
          <mask id="mask-2" fill="white">
            <polygon points="0 0.935 282.979 0.935 282.979 35.401 0 35.401"/>
          </mask>
          <g id="Clip-62"/>
          <path d="M -0.001 4.544 L 267.325 0.935 L 282.979 9.827 C 282.979 9.827 77.762 70.746 -0.001 4.544" id="Fill-61" mask="url(#mask-2)" style="fill: rgb(164, 240, 211);"/>
        </g>
        <g id="Group-84" transform="matrix(0.999797, 0.020136, -0.020136, 0.999797, 165.159592, 7.452859)">
          <g id="Clip-83"/>
        </g>
        <path d="M 63.948 186.102 C 64.225 184.292 64.171 182.568 65.2 180.971 C 67.25 177.79 70.16 178.59 72.978 179.989 C 75.85 181.415 78.552 182.268 81.674 180.937 C 86.549 178.856 88.835 171.609 84.185 168.199 C 82.679 167.095 81.196 168.918 81.397 170.314 C 81.678 172.264 82.659 174.408 80.964 176.085 C 78.7 178.326 76.042 176.444 73.782 175.439 C 71.339 174.353 68.744 174.114 66.224 175.118 C 61.887 176.848 58.741 182.646 62.187 186.56 C 62.671 187.114 63.831 186.864 63.948 186.102" id="Fill-93" fill="#7E2E84" transform="matrix(0.999797, 0.020136, -0.020136, 0.999797, 3.586302, -1.448477)"/>
        <path d="M 106.333 242.393 C 112.418 242.752 118.816 242.895 124.893 242.421 C 127.125 242.245 126.85 239.834 124.684 239.767 C 118.7 239.581 112.429 239.996 106.499 240.626 C 105.309 240.752 104.954 242.312 106.333 242.393" id="Fill-95" fill="#7E2E84" transform="matrix(0.999797, 0.020136, -0.020136, 0.999797, 4.880822, -2.285743)"/>
        <path d="M 214.19 88.577 C 213.379 90.16 216.029 131.044 216.029 131.044 L 236.028 129.372 L 233.696 140.166 L 243.468 129.071 L 263.036 126.796 L 261.848 87.166 L 214.19 88.577 Z" id="Fill-97" style="fill: rgb(164, 240, 211);" transform="matrix(0.999797, 0.020136, -0.020136, 0.999797, 2.337171, -4.78017)"/>
        <path d="M 225.157 106.581 L 229.391 121.167 L 235.318 120.021 L 234.739 117.085 L 236.421 116.084 L 239.596 119.196 L 249.636 117.257 L 250.937 113.452 L 248.08 112.819 L 251.768 111.598 L 250.967 107.523 L 247.777 107.8 L 252.157 106.617 L 251.161 101.559 L 240.959 103.53 C 240.959 103.53 241.617 96.463 238.604 94.167 L 236.299 94.613 C 236.299 94.613 237.077 96.832 237.004 98.199 C 236.934 99.567 234.927 105.878 234.927 105.878 L 231.795 107.33 L 231.052 105.272 L 225.157 106.581 Z" id="Fill-99" fill="#FFFFFF" transform="matrix(0.999797, 0.020136, -0.020136, 0.999797, 2.216398, -4.783826)"/>
        <polygon id="Fill-101" points="19.211 75.764 22.617 116.449 97.443 116.449 101.584 130.764 105.952 115.065 120.211 114.236 113.638 77.795" style="fill: rgb(164, 240, 211);" transform="matrix(0.999797, 0.020136, -0.020136, 0.999797, 2.093484, -1.382781)"/>
        <path d="M 29.07 90.553 C 54.694 89.577 80.227 89.642 105.787 91.714 C 106.699 91.786 106.703 90.513 105.787 90.452 C 80.256 88.737 54.641 88.085 29.07 89.457 C 28.279 89.5 28.268 90.582 29.07 90.553" id="Fill-103" fill="#FFFFFF" transform="matrix(0.999797, 0.020136, -0.020136, 0.999797, 1.830308, -1.340352)"/>
        <path d="M 23.453 102.971 C 49.076 101.995 74.611 102.06 100.17 104.132 C 101.082 104.204 101.086 102.931 100.17 102.868 C 74.641 101.155 49.025 100.503 23.453 101.875 C 22.662 101.918 22.651 103.001 23.453 102.971" id="Fill-105" fill="#FFFFFF" transform="matrix(0.999797, 0.020136, -0.020136, 0.999797, 2.079195, -1.224715)"/>
        <path d="M 30.765 105.68 C 48.073 106.232 65.181 105.044 82.472 106.498 C 83.39 106.576 83.396 105.208 82.472 105.148 C 65.2 104.038 48.058 104.748 30.765 104.508 C 29.96 104.496 29.964 105.654 30.765 105.68" id="Fill-107" fill="#FFFFFF" transform="matrix(0.999797, 0.020136, -0.020136, 0.999797, 2.135887, -1.119584)"/>
      </g>
    </g>
  </g>
</svg>